<svg width="16" height="15" viewBox="0 0 16 15" fill="none" xmlns="http://www.w3.org/2000/svg">
<path d="M8.04102 0.351978C8.07695 0.241421 8.23336 0.241421 8.26928 0.351979L9.98045 5.61842C9.99652 5.66787 10.0426 5.70134 10.0946 5.70134H15.632C15.7483 5.70134 15.7966 5.8501 15.7026 5.91842L11.2227 9.17327C11.1806 9.20382 11.163 9.25799 11.1791 9.30743L12.8903 14.5739C12.9262 14.6844 12.7996 14.7764 12.7056 14.708L8.22569 11.4532C8.18363 11.4226 8.12668 11.4226 8.08462 11.4532L3.60471 14.708C3.51067 14.7764 3.38413 14.6844 3.42005 14.5739L5.13122 9.30743C5.14729 9.25799 5.12969 9.20382 5.08763 9.17327L0.607723 5.91842C0.513677 5.8501 0.56201 5.70134 0.678257 5.70134H6.21573C6.26771 5.70134 6.31379 5.66787 6.32985 5.61842L8.04102 0.351978Z" fill="#FFBA0E"/>
</svg>
